<?xml version="1.0" encoding="iso-8859-1"?>
<!-- Generator: Adobe Illustrator 19.0.0, SVG Export Plug-In . SVG Version: 6.00 Build 0)  -->
<svg version="1.1" id="Layer_1" xmlns="http://www.w3.org/2000/svg" xmlns:xlink="http://www.w3.org/1999/xlink" x="0px" y="0px"
	 viewBox="0 0 496.158 496.158" style="enable-background:new 0 0 496.158 496.158;" xml:space="preserve">
<path style="fill:#A076AB;" d="M248.082,0.003C111.07,0.003,0,111.063,0,248.085c0,137.001,111.07,248.07,248.082,248.07
	c137.006,0,248.076-111.069,248.076-248.07C496.158,111.062,385.088,0.003,248.082,0.003z"/>
<g>
	<path style="fill:#DBB595;" d="M329.289,233.257c-7.666-3.286-16.839,0.987-20.505,9.55l-45.263,107.684
		c-3.318,7.762-0.395,16.479,6.557,19.458c6.943,2.973,15.274-0.911,18.6-8.682l48.927-105.637
		C341.275,247.077,336.936,236.539,329.289,233.257z"/>
	<path style="fill:#DBB595;" d="M361.949,246.566c-8.007-3.29-18.065-0.056-21.606,8.563l-50.622,129.43
		c-3.211,7.805,0.072,16.571,7.34,19.555c7.258,2.981,15.749-0.941,18.961-8.753l55.377-126.818
		C374.93,259.926,369.958,249.857,361.949,246.566z"/>
	<path style="fill:#DBB595;" d="M394.111,260.418c-7.733-3.069-17.758,0.93-21.178,9.598l-41.261,107.071
		c-3.432,8.651,0.071,18.157,7.81,21.225c7.745,3.072,16.795-1.461,20.229-10.115l44.161-105.917
		C407.298,273.614,401.853,263.488,394.111,260.418z"/>
	<path style="fill:#DBB595;" d="M427.094,270.205c-7.323-2.779-17.57,1.292-20.874,9.984l-20.478,62.648
		c-2.868,7.554-0.039,15.63,6.314,18.05c6.354,2.411,13.834-1.755,16.702-9.307l20.976-61.091
		C433.046,281.784,434.411,272.987,427.094,270.205z"/>
	<path style="fill:#DBB595;" d="M351.273,148.413c0,0-29.284,18.644-44.187,27.445c-7.592,4.519-17.002,21.612-28.612,36.851
		c-11.144,14.646-25.177,25.142-23.648,30.923c4.194,15.86,26.673,4.979,29.232,3.521c21.731-12.433,41.892-39.138,41.892-39.138
		l36.729-10.467L351.273,148.413z"/>
</g>
<path style="fill:#EFE4DC;" d="M253.889,246.228c15.527-3.569,17.231-24.763,17.231-24.763
	C247.447,241.812,253.889,246.228,253.889,246.228z"/>
<path style="fill:#E8C7AF;" d="M399.131,341.175c-4.684-1.585-9.055-1.179-11.042,4.691c-0.091,0.268-0.484,2.043-0.562,2.327
	c-1.623,5.86,1.069,9.948,5.54,11.461c4.343,1.472,8.758,0.226,11.167-5.267c0.19-0.426,0.666-2.353,0.81-2.777
	C407.033,345.742,403.812,342.763,399.131,341.175z"/>
<path style="fill:#F7F3F0;" d="M398.855,341.85c-4.479-1.593-8.687-1.267-10.684,4.345c-0.092,0.257-1.185,4.255-1.266,4.525
	c-1.642,5.61-1.488,12.165,4.074,14.144c5.559,1.981,9.5-2.697,11.9-7.941c0.186-0.407,1.361-4.547,1.505-4.953
	C406.382,346.355,403.333,343.445,398.855,341.85z"/>
<path style="fill:#EFE4DC;" d="M399.138,341.989c-4.476-1.593-8.684-1.268-10.681,4.345c-0.092,0.256-0.658,1.831-0.736,2.103
	c-1.646,5.608,0.883,9.577,5.159,11.099c4.15,1.479,8.412,0.347,10.813-4.897c0.186-0.407,0.832-2.125,0.979-2.53
	C406.67,346.495,403.615,343.584,399.138,341.989z"/>
<path style="fill:#E8C7AF;" d="M348.844,374.517c-5.645-2.103-10.978-1.768-13.614,5.303c-0.116,0.325-0.665,2.471-0.77,2.813
	c-2.191,7.074,0.937,12.149,6.321,14.155c5.23,1.951,10.654,0.596,13.789-6.001c0.248-0.512,0.9-2.841,1.09-3.349
	C358.295,380.365,354.482,376.621,348.844,374.517z"/>
<path style="fill:#F7F3F0;" d="M348.481,375.327c-5.391-2.104-10.524-1.861-13.163,4.897c-0.123,0.31-1.598,5.136-1.707,5.462
	c-2.207,6.768-2.256,14.753,4.44,17.367c6.694,2.615,11.663-2.936,14.775-9.231c0.243-0.487,1.825-5.485,2.018-5.973
	C357.483,381.089,353.871,377.433,348.481,375.327z"/>
<path style="fill:#EFE4DC;" d="M348.822,375.507c-5.394-2.104-10.524-1.862-13.161,4.897c-0.123,0.31-0.87,2.205-0.977,2.532
	c-2.21,6.768,0.726,11.692,5.871,13.701c5.002,1.953,10.233,0.731,13.345-5.565c0.244-0.489,1.095-2.556,1.285-3.043
	C357.824,381.269,354.216,377.613,348.822,375.507z"/>
<path style="fill:#E8C7AF;" d="M306.984,380.411c-5.49-2.475-10.838-2.496-13.936,4.386c-0.14,0.315-0.828,2.421-0.958,2.754
	c-2.657,6.913,0.128,12.186,5.366,14.544c5.092,2.295,10.594,1.305,14.158-5.07c0.28-0.494,1.085-2.774,1.311-3.27
	C316.025,386.874,312.471,382.884,306.984,380.411z"/>
<path style="fill:#F7F3F0;" d="M306.567,381.193c-5.238-2.457-10.377-2.556-13.458,4.012c-0.145,0.3-1.937,5.018-2.066,5.336
	c-2.652,6.606-3.23,14.57,3.273,17.624c6.507,3.055,11.834-2.153,15.357-8.228c0.276-0.47,2.188-5.352,2.41-5.827
	C315.168,387.542,311.806,383.654,306.567,381.193z"/>
<path style="fill:#EFE4DC;" d="M306.898,381.396c-5.24-2.456-10.379-2.557-13.46,4.011c-0.142,0.302-1.014,2.143-1.142,2.463
	c-2.654,6.605-0.053,11.714,4.949,14.061c4.857,2.28,10.16,1.409,13.683-4.666c0.276-0.472,1.262-2.477,1.486-2.952
	C315.494,387.745,312.137,383.857,306.898,381.396z"/>
<path style="fill:#E8C7AF;" d="M280.089,347.055c-5.488-2.474-10.833-2.495-13.934,4.387c-0.14,0.315-0.828,2.421-0.955,2.754
	c-2.657,6.912,0.125,12.185,5.365,14.544c5.093,2.294,10.593,1.304,14.159-5.071c0.28-0.495,1.085-2.774,1.308-3.27
	C289.132,353.519,285.58,349.529,280.089,347.055z"/>
<path style="fill:#F7F3F0;" d="M279.674,347.838c-5.238-2.456-10.377-2.556-13.458,4.012c-0.142,0.301-1.937,5.018-2.063,5.336
	c-2.653,6.606-3.235,14.57,3.273,17.623c6.504,3.055,11.833-2.151,15.357-8.226c0.273-0.471,2.187-5.353,2.407-5.828
	C288.274,354.186,284.914,350.299,279.674,347.838z"/>
<path style="fill:#EFE4DC;" d="M280.006,348.04c-5.241-2.457-10.377-2.556-13.461,4.012c-0.139,0.301-1.014,2.143-1.141,2.462
	c-2.655,6.605-0.054,11.714,4.948,14.063c4.86,2.28,10.158,1.408,13.686-4.666c0.273-0.472,1.259-2.478,1.481-2.951
	C288.603,354.39,285.246,350.502,280.006,348.04z"/>
<path style="fill:#CEA98D;" d="M334.748,188.578c0,0-7.516,11.254-11.369,18.263c-3.813,6.934-11.877,29.192-11.877,29.192
	s8.92-19.744,13.92-28.124c4.967-8.325,11.086-17.315,11.086-17.315L334.748,188.578z"/>
<g>
	<path style="fill:#DBB595;" d="M400.359,52.237l-20.152,54.974c-6.07,7.209-36.509,46.286-36.509,46.286l-38.531,98.764
		l54.913,23.82l45.483,10.192l24.785,2.988c0,0,21.809-44.96,30.634-73.794c8.635-28.21,9.646-44.468,12.338-71.46
		C456.594,107.868,431.435,76.435,400.359,52.237z"/>
	<path style="fill:#DBB595;" d="M152.46,153.496c0,0-30.438-39.076-36.509-46.286L95.799,52.238
		c-31.076,24.198-56.234,55.631-72.961,91.77c2.691,26.992,3.703,43.25,12.338,71.459c8.825,28.834,30.634,73.794,30.634,73.794
		l24.785-2.988l45.483-10.192l54.914-23.82L152.46,153.496z"/>
	<path style="fill:#DBB595;" d="M232.637,350.492l-45.263-107.684c-3.666-8.563-12.839-12.836-20.505-9.55
		c-7.647,3.282-11.985,13.819-8.314,22.374l48.926,105.637c3.325,7.771,11.656,11.655,18.6,8.682
		C233.031,366.971,235.955,358.254,232.637,350.492z"/>
	<path style="fill:#DBB595;" d="M206.437,384.558l-50.622-129.43c-3.54-8.619-13.6-11.853-21.606-8.563
		c-8.009,3.291-12.98,13.36-9.449,21.976l55.378,126.818c3.211,7.812,11.702,11.735,18.96,8.753
		C206.365,401.129,209.648,392.364,206.437,384.558z"/>
	<path style="fill:#DBB595;" d="M164.485,377.087l-41.261-107.071c-3.42-8.667-13.443-12.667-21.178-9.598
		c-7.742,3.07-13.187,13.196-9.762,21.862l44.162,105.917c3.434,8.654,12.484,13.187,20.229,10.115
		C164.414,395.244,167.918,385.738,164.485,377.087z"/>
	<path style="fill:#DBB595;" d="M110.416,342.837l-20.478-62.648c-3.304-8.692-13.551-12.763-20.874-9.984
		c-7.317,2.781-5.952,11.578-2.641,20.284l20.976,61.091c2.868,7.551,10.349,11.718,16.702,9.307
		C110.455,358.467,113.284,350.391,110.416,342.837z"/>
	<path style="fill:#DBB595;" d="M217.683,212.709c-11.61-15.239-21.021-32.333-28.611-36.851
		c-14.903-8.801-44.188-27.445-44.188-27.445l-11.406,49.136l36.729,10.467c0,0,20.16,26.705,41.892,39.138
		c2.561,1.457,25.038,12.339,29.232-3.521C242.86,237.851,228.827,227.354,217.683,212.709z"/>
</g>
<path style="fill:#EFE4DC;" d="M225.039,221.465c0,0,1.703,21.194,17.23,24.763C242.269,246.228,248.711,241.812,225.039,221.465z"
	/>
<path style="fill:#E8C7AF;" d="M108.631,348.193c-0.077-0.283-0.471-2.059-0.562-2.327c-1.987-5.87-6.358-6.276-11.042-4.691
	c-4.682,1.588-7.902,4.566-5.913,10.435c0.144,0.424,0.619,2.351,0.81,2.777c2.409,5.493,6.824,6.738,11.167,5.267
	C107.561,358.141,110.254,354.053,108.631,348.193z"/>
<path style="fill:#F7F3F0;" d="M109.252,350.719c-0.081-0.27-1.174-4.268-1.266-4.525c-1.997-5.612-6.205-5.938-10.684-4.345
	c-4.477,1.595-7.526,4.506-5.529,10.119c0.144,0.405,1.318,4.546,1.504,4.953c2.4,5.244,6.342,9.922,11.9,7.941
	C110.74,362.884,110.893,356.329,109.252,350.719z"/>
<path style="fill:#EFE4DC;" d="M108.437,348.436c-0.078-0.272-0.645-1.846-0.736-2.103c-1.997-5.613-6.205-5.938-10.681-4.345
	c-4.478,1.595-7.531,4.506-5.532,10.119c0.146,0.405,0.793,2.123,0.979,2.53c2.399,5.244,6.661,6.376,10.813,4.897
	C107.555,358.014,110.084,354.044,108.437,348.436z"/>
<path style="fill:#E8C7AF;" d="M161.698,382.633c-0.104-0.343-0.653-2.488-0.77-2.813c-2.637-7.071-7.97-7.406-13.614-5.303
	c-5.639,2.104-9.451,5.848-6.816,12.921c0.189,0.508,0.842,2.837,1.09,3.349c3.135,6.597,8.559,7.953,13.789,6.001
	C160.762,394.783,163.89,389.707,161.698,382.633z"/>
<path style="fill:#F7F3F0;" d="M162.547,385.685c-0.109-0.326-1.584-5.152-1.707-5.462c-2.639-6.758-7.771-7-13.163-4.897
	c-5.389,2.106-9.002,5.763-6.362,12.522c0.191,0.488,1.773,5.486,2.017,5.973c3.112,6.295,8.081,11.846,14.775,9.231
	C164.803,400.439,164.755,392.454,162.547,385.685z"/>
<path style="fill:#EFE4DC;" d="M161.474,382.936c-0.106-0.327-0.854-2.223-0.977-2.532c-2.636-6.759-7.768-7.001-13.161-4.897
	c-5.394,2.106-9.002,5.762-6.363,12.521c0.19,0.487,1.041,2.555,1.285,3.043c3.111,6.296,8.343,7.518,13.345,5.565
	C160.748,394.628,163.683,389.704,161.474,382.936z"/>
<path style="fill:#E8C7AF;" d="M204.067,387.551c-0.13-0.333-0.818-2.439-0.958-2.754c-3.098-6.882-8.445-6.861-13.936-4.386
	c-5.486,2.474-9.041,6.463-5.941,13.344c0.226,0.496,1.03,2.776,1.311,3.27c3.564,6.375,9.066,7.365,14.158,5.07
	C203.939,399.737,206.725,394.464,204.067,387.551z"/>
<path style="fill:#F7F3F0;" d="M205.115,390.541c-0.13-0.318-1.922-5.036-2.066-5.336c-3.081-6.568-8.22-6.468-13.458-4.012
	c-5.237,2.46-8.601,6.349-5.517,12.917c0.223,0.475,2.134,5.357,2.41,5.827c3.524,6.075,8.851,11.282,15.357,8.228
	C208.346,405.112,207.767,397.148,205.115,390.541z"/>
<path style="fill:#EFE4DC;" d="M203.861,387.87c-0.128-0.32-1-2.161-1.141-2.463c-3.082-6.568-8.221-6.467-13.461-4.011
	c-5.238,2.461-8.596,6.349-5.517,12.917c0.225,0.476,1.21,2.48,1.486,2.952c3.522,6.075,8.825,6.946,13.683,4.666
	C203.914,399.583,206.516,394.475,203.861,387.87z"/>
<path style="fill:#E8C7AF;" d="M230.958,354.197c-0.127-0.333-0.815-2.439-0.955-2.754c-3.101-6.882-8.445-6.861-13.934-4.387
	c-5.491,2.474-9.043,6.464-5.943,13.345c0.223,0.496,1.027,2.775,1.308,3.27c3.566,6.375,9.066,7.366,14.159,5.071
	C230.833,366.381,233.615,361.109,230.958,354.197z"/>
<path style="fill:#F7F3F0;" d="M232.006,357.186c-0.127-0.318-1.922-5.035-2.063-5.336c-3.081-6.567-8.22-6.468-13.458-4.012
	c-5.24,2.461-8.601,6.348-5.517,12.917c0.221,0.475,2.134,5.357,2.407,5.828c3.524,6.075,8.854,11.281,15.357,8.226
	C235.241,371.756,234.659,363.792,232.006,357.186z"/>
<path style="fill:#EFE4DC;" d="M230.754,354.514c-0.127-0.319-1.001-2.161-1.141-2.462c-3.084-6.567-8.22-6.468-13.461-4.012
	c-5.24,2.461-8.598,6.35-5.514,12.919c0.223,0.474,1.208,2.479,1.482,2.951c3.526,6.074,8.824,6.946,13.685,4.666
	C230.808,366.228,233.409,361.12,230.754,354.514z"/>
<path style="fill:#CEA98D;" d="M172.779,206.84c-3.854-7.008-11.368-18.263-11.368-18.263l-1.761,2.016c0,0,6.12,8.99,11.087,17.315
	c4.999,8.38,13.919,28.124,13.919,28.124S176.592,213.774,172.779,206.84z"/>
<path style="fill:#FFFFFF;" d="M363.969,225.062c-7.156-17.718-19.787-20.941-31.813-16.085
	c-12.022,4.855-18.877,15.947-11.723,33.665c5.269,13.046,25.608,35.351,37.633,30.495
	C370.09,268.282,368.869,237.198,363.969,225.062z"/>
<path style="fill:#F4E028;" d="M359.855,250.366c-3.229-7.997-8.243-7.764-13.666-5.574s-9.2,5.507-5.971,13.503
	c3.227,7.991,14.389,16.755,17.656,15.435C361.283,272.354,363.082,258.356,359.855,250.366z"/>
<path style="fill:#FFFFFF;" d="M423.459,241.467c-6.387-11.286-18.279-16.631-34.91-7.223
	c-12.246,6.928-31.702,30.006-25.318,41.292c6.386,11.287,37.044,6.017,48.436-0.427C428.297,265.7,429.842,252.754,423.459,241.467
	z"/>
<path style="fill:#F4E028;" d="M389.783,260.057c-2.881-5.089-6.663-8.4-14.168-4.154c-7.501,4.244-14.732,16.455-12.997,19.521
	c1.81,3.198,15.923,3.155,23.423-1.088C393.549,270.089,392.662,265.149,389.783,260.057z"/>
<path style="fill:#FFFFFF;" d="M414.658,291.597c-11.27-8.421-40.228-16.94-47.99-6.552c-7.761,10.39,9.406,36.332,19.892,44.164
	c15.309,11.438,27.78,7.639,35.54-2.748C429.862,316.071,429.968,303.033,414.658,291.597z"/>
<path style="fill:#F4E028;" d="M389.627,288.478c-6.904-5.158-20.993-6.862-23.102-4.039c-2.198,2.943,3.522,15.846,10.427,21.004
	c6.907,5.162,11.075,2.36,14.574-2.324C395.027,298.433,396.534,293.639,389.627,288.478z"/>
<path style="fill:#FFFFFF;" d="M356.851,288.622c-12.84-1.823-27.358,25.688-29.198,38.646
	c-2.687,18.918,6.632,28.038,19.469,29.861c12.839,1.824,24.329-4.341,27.015-23.259
	C376.113,319.939,369.691,290.446,356.851,288.622z"/>
<path style="fill:#F4E028;" d="M357.314,288.206c-3.637-0.517-12.211,10.694-13.422,19.226c-1.213,8.539,3.244,10.849,9.034,11.671
	c5.79,0.823,10.721-0.155,11.933-8.693C366.071,301.877,360.805,288.701,357.314,288.206z"/>
<path style="fill:#FFFFFF;" d="M353.814,278.678c-2.769-12.668-33.616-16.679-46.401-13.884
	c-18.669,4.081-23.965,15.993-21.194,28.662c2.768,12.667,12.553,21.284,31.22,17.205
	C331.183,307.656,356.584,291.347,353.814,278.678z"/>
<g>
	<path style="fill:#F4E028;" d="M354.367,278.967c-0.785-3.59-14.281-7.712-22.701-5.873c-8.424,1.841-9.036,6.824-7.787,12.539
		c1.249,5.712,3.887,9.991,12.311,8.149C344.608,291.942,355.12,282.41,354.367,278.967z"/>
	<path style="fill:#F4E028;" d="M372.717,276.242c-2.643-6.547-10.374-9.604-17.26-6.824c-6.88,2.778-10.318,10.346-7.674,16.893
		c2.645,6.548,10.373,9.607,17.253,6.828C371.922,290.359,375.362,282.79,372.717,276.242z"/>
</g>
<path style="fill:#E2CB23;" d="M368.476,277.955c-1.625-4.024-6.628-5.801-11.172-3.967c-4.539,1.833-6.904,6.585-5.279,10.609
	c1.625,4.026,6.628,5.803,11.167,3.97C367.736,286.733,370.101,281.98,368.476,277.955z"/>
<g>
</g>
<g>
</g>
<g>
</g>
<g>
</g>
<g>
</g>
<g>
</g>
<g>
</g>
<g>
</g>
<g>
</g>
<g>
</g>
<g>
</g>
<g>
</g>
<g>
</g>
<g>
</g>
<g>
</g>
</svg>
