<?xml version="1.0" encoding="iso-8859-1"?>
<!-- Generator: Adobe Illustrator 18.0.0, SVG Export Plug-In . SVG Version: 6.00 Build 0)  -->
<!DOCTYPE svg PUBLIC "-//W3C//DTD SVG 1.1//EN" "http://www.w3.org/Graphics/SVG/1.1/DTD/svg11.dtd">
<svg version="1.1" id="Capa_1" xmlns="http://www.w3.org/2000/svg" xmlns:xlink="http://www.w3.org/1999/xlink" x="0px" y="0px"
	 viewBox="0 0 108.369 108.369" style="enable-background:new 0 0 108.369 108.369;" xml:space="preserve">
<g>
	<g>
		<path style="fill-rule:evenodd;clip-rule:evenodd;fill:#A2400F;" d="M82.844,11.691C63.094-5.67,45.018-0.333,38.714,6.321
			C42.216,10.172,64.985,23.947,82.844,11.691z"/>
		<path style="fill-rule:evenodd;clip-rule:evenodd;fill:#A2400F;" d="M90.33,30.537C80.605,4.147,46.1,0.893,38.714,6.321
			C41.476,10.734,70.576,39.424,90.33,30.537z"/>
		<path style="fill-rule:evenodd;clip-rule:evenodd;fill:#A2400F;" d="M88.323,43.303c-3.65-26.087-41.487-41.23-49.609-36.982
			C40.776,11.101,67.452,49.099,88.323,43.303z"/>
		<path style="fill-rule:evenodd;clip-rule:evenodd;fill:#A2400F;" d="M20.44,17.722c7.799,0.399,20.55-4.143,18.274-11.401
			C31.939,6.485,26.032,8.995,20.44,17.722z"/>
		<path style="fill-rule:evenodd;clip-rule:evenodd;fill:#A2400F;" d="M17.516,33.365c10.577-3.21,20.956-17.916,21.198-27.044
			C33.996,8.521,20.564,15.508,17.516,33.365z"/>
		<path style="fill-rule:evenodd;clip-rule:evenodd;fill:#A2400F;" d="M19.277,44.47c15.255-4.41,20.939-29.143,19.437-38.149
			C34.502,9.38,18.866,26.36,19.277,44.47z"/>
		<path style="fill-rule:evenodd;clip-rule:evenodd;fill:#A2400F;" d="M82.413,58.484C89.795,28.562,47.356,3.265,38.714,6.321
			C40.078,11.344,60.932,61.268,82.413,58.484z"/>
		<path style="fill-rule:evenodd;clip-rule:evenodd;fill:#A2400F;" d="M26.576,60.043C45.748,43.795,45.805,12.127,38.714,6.321
			C35.125,10.091,13.063,43.115,26.576,60.043z"/>
		<path style="fill-rule:evenodd;clip-rule:evenodd;fill:#A2400F;" d="M36.377,71.141c16.225-19.193,10.291-60.266,2.337-64.82
			C35.797,10.632,20.252,56.679,36.377,71.141z"/>
		<path style="fill-rule:evenodd;clip-rule:evenodd;fill:#A2400F;" d="M75.1,70.268C78.145,44.582,47.776,4.944,38.714,6.321
			C39.11,11.511,53.478,68.963,75.1,70.268z"/>
		<path style="fill-rule:evenodd;clip-rule:evenodd;fill:#A2400F;" d="M46.095,70.762c13.172-21.403,1.164-61.127-7.381-64.441
			C36.475,11.02,27.989,58.873,46.095,70.762z"/>
		<path style="fill-rule:evenodd;clip-rule:evenodd;fill:#A2400F;" d="M65.743,74.75c6.628-25.004-17.864-68.518-27.029-68.43
			C38.376,11.515,44.521,70.417,65.743,74.75z"/>
	</g>
	<path style="fill-rule:evenodd;clip-rule:evenodd;fill:#FFDECC;" d="M63.854,67.923c-0.199,0.313-19.746,0.624-19.962,0.932
		c-6.14,8.759-19.404,12.596-29.951,14.954c-10.497,2.347-10.903,15.68-10.919,24.56h102.325c-0.017-8.88-0.211-22.165-10.919-24.56
		C83.719,81.415,69.678,77.081,63.854,67.923z"/>
	<path style="fill-rule:evenodd;clip-rule:evenodd;fill:#FFDECC;" d="M64.436,49.219v25.117c-5.639,7.411-14.864,7.155-20.503,0
		V49.219C43.933,35.658,64.436,35.658,64.436,49.219z"/>
	<path style="fill-rule:evenodd;clip-rule:evenodd;fill:#F7C5AA;" d="M64.436,49.219v16.816c-3.879,3.035-7.618,4.735-10.252,4.735
		c-2.633,0-6.372-1.7-10.251-4.734V49.219C43.933,35.658,64.436,35.658,64.436,49.219z"/>
	<path style="fill-rule:evenodd;clip-rule:evenodd;fill:#FFDECC;" d="M54.184,66.593c-6.674,0-20.775-10.494-25.134-25.523
		C24.649,25.893,32.938,4.125,54.184,4.125c21.247,0,29.537,21.768,25.135,36.944C74.959,56.099,60.86,66.593,54.184,66.593z"/>
	<path style="fill-rule:evenodd;clip-rule:evenodd;fill:#FF386A;" d="M43.544,51.202c4.501-3.293,9.199-1.345,10.77-1.345
		c1.571,0,6.01-1.948,10.512,1.345C62.585,60.254,46.934,60.483,43.544,51.202z"/>
	<path style="fill-rule:evenodd;clip-rule:evenodd;fill:#A31F40;" d="M43.679,51.154c4.179-1.474,7.872,1.412,10.501,1.412
		c2.629,0,6.332-3.875,10.511-1.265C59.794,56.292,48.609,56.022,43.679,51.154z"/>
	<path style="fill-rule:evenodd;clip-rule:evenodd;fill:#FFFFFF;" d="M43.543,51.154c4.502-1.856,7.814-0.511,10.443-0.511
		c2.629,0,6.337-1.346,10.839,0.511C59.928,53.949,48.473,53.856,43.543,51.154z"/>
	<path style="fill-rule:evenodd;clip-rule:evenodd;fill:#FF386A;" d="M43.565,51.17c4.481-3.25,8.329-0.995,10.953-0.995
		c2.625,0,5.784-2.267,10.285,1.026c-0.016,0.046-0.034,0.091-0.051,0.136C59.013,51.235,49.62,51.176,43.565,51.17z"/>
	
		<ellipse transform="matrix(-0.3947 -0.9188 0.9188 -0.3947 -2.6676 86.6722)" style="fill-rule:evenodd;clip-rule:evenodd;fill:#FFDECC;" cx="27.217" cy="44.215" rx="7.317" ry="4.231"/>
	
		<ellipse transform="matrix(0.3946 -0.9188 0.9188 0.3946 8.2215 100.9074)" style="fill-rule:evenodd;clip-rule:evenodd;fill:#FFDECC;" cx="80.689" cy="44.214" rx="7.316" ry="4.231"/>
	<path style="fill-rule:evenodd;clip-rule:evenodd;fill:#A2400F;" d="M28.366,40.202C22.578,13.63,41.209,2.012,54.486,2.012
		c14.952,0,28.978,16.348,26.455,36.7c-7.733-3.66-12.817-8.435-20-16.904c0.618,2.626,6.28,11.82,11.846,14.948
		c-9.045,1.471-25.894-9.755-34.873-21.502C35.769,23.605,32.307,34.827,28.366,40.202z"/>
	<path style="fill-rule:evenodd;clip-rule:evenodd;fill:#4D1B02;" d="M104.698,97.302c-0.815-5.077-2.668-9.813-6.908-12.217
		c-29.059,9.571-58.117,8.949-87.176,0c-4.167,2.397-6.041,7.137-6.89,12.219c7.982,0.218,14.801,4.702,17.866,11.064h65.188
		C89.851,101.992,96.694,97.501,104.698,97.302z"/>
</g>
<g>
</g>
<g>
</g>
<g>
</g>
<g>
</g>
<g>
</g>
<g>
</g>
<g>
</g>
<g>
</g>
<g>
</g>
<g>
</g>
<g>
</g>
<g>
</g>
<g>
</g>
<g>
</g>
<g>
</g>
</svg>
